<?xml version="1.0" standalone="no"?>
<!DOCTYPE svg PUBLIC "-//W3C//DTD SVG 20010904//EN"
 "http://www.w3.org/TR/2001/REC-SVG-20010904/DTD/svg10.dtd">
<svg version="1.0" xmlns="http://www.w3.org/2000/svg"
 width="204.000000pt" height="204.000000pt" viewBox="0 0 204.000000 204.000000"
 preserveAspectRatio="xMidYMid meet">
<metadata>
Created by potrace 1.14, written by Peter Selinger 2001-2017
</metadata>
<g transform="translate(0.000000,204.000000) scale(0.100000,-0.100000)"
fill="#000000" stroke="none">
<path d="M845 2019 c-161 -33 -283 -88 -412 -186 -90 -68 -243 -233 -243 -262
0 -6 -4 -11 -8 -11 -5 0 -14 -16 -22 -35 -8 -19 -17 -35 -22 -35 -4 0 -8 -7
-8 -16 0 -9 -9 -29 -21 -46 -12 -16 -18 -32 -15 -35 3 -4 -1 -17 -9 -29 -8
-13 -12 -31 -8 -40 4 -11 3 -15 -5 -10 -6 4 -11 -1 -11 -11 0 -10 -3 -29 -5
-43 -2 -14 -5 -31 -5 -38 -1 -7 -6 -10 -12 -6 -8 5 -8 1 0 -14 7 -14 8 -23 1
-27 -6 -4 -8 -11 -5 -16 4 -5 1 -9 -6 -9 -10 0 -10 -3 -1 -12 8 -8 8 -17 1
-31 -6 -11 -7 -17 -2 -14 5 3 9 -3 9 -13 0 -11 -5 -16 -14 -12 -11 4 -9 -3 4
-24 11 -15 13 -25 6 -21 -9 6 -11 2 -8 -15 3 -13 5 -23 6 -23 1 0 3 -12 4 -27
2 -16 0 -28 -3 -28 -4 0 -7 -8 -7 -19 0 -13 5 -17 16 -13 13 5 13 3 1 -11 -11
-14 -11 -17 0 -17 12 0 12 -2 1 -9 -11 -7 -10 -9 3 -15 9 -3 13 -11 10 -16 -4
-6 -1 -19 7 -28 12 -15 11 -16 -4 -4 -12 10 -18 10 -24 1 -4 -7 -3 -9 4 -5 13
8 26 -29 16 -45 -4 -8 -3 -9 4 -5 8 5 12 -1 12 -16 0 -18 2 -20 10 -8 5 8 10
10 10 4 0 -5 -5 -15 -11 -21 -8 -8 -5 -15 11 -26 20 -14 21 -16 3 -20 -17 -4
-17 -5 0 -6 11 -1 17 -8 15 -18 -2 -11 2 -17 11 -15 12 3 12 1 0 -14 -9 -12
-9 -15 -1 -10 8 5 12 -1 12 -21 0 -22 2 -25 10 -13 8 12 10 10 10 -8 0 -22 22
-54 35 -52 4 1 10 -2 13 -6 4 -4 2 -4 -4 -1 -7 4 -14 0 -17 -8 -4 -8 2 -16 14
-20 10 -4 19 -13 19 -21 0 -8 6 -14 14 -14 21 0 31 -21 15 -31 -11 -7 -9 -9 6
-9 11 0 27 -5 35 -11 13 -9 12 -10 -2 -5 -12 3 -15 1 -11 -9 3 -8 9 -12 14 -9
5 3 9 -2 9 -11 0 -11 5 -15 15 -12 8 4 17 1 21 -5 4 -7 3 -8 -4 -4 -7 4 -12 2
-12 -3 0 -6 7 -11 16 -11 10 0 14 -6 10 -15 -3 -8 -2 -14 2 -14 20 3 32 -2 32
-14 0 -8 12 -19 26 -25 16 -8 22 -17 18 -25 -5 -8 -2 -8 9 2 16 13 22 8 18
-13 -1 -5 5 -3 14 4 13 11 14 10 8 -5 -5 -15 -3 -17 12 -12 14 6 15 5 7 -6 -8
-10 -6 -13 10 -14 12 -1 24 -7 28 -14 4 -6 18 -9 31 -5 13 3 18 3 12 0 -7 -3
-13 -10 -13 -15 0 -6 4 -8 9 -5 5 3 14 -1 21 -9 10 -12 16 -13 28 -3 9 7 13 9
10 3 -3 -5 0 -16 8 -23 12 -11 14 -10 14 5 0 15 2 15 9 3 6 -8 8 -17 5 -21 -5
-9 17 -6 33 4 9 6 11 3 7 -7 -3 -9 -2 -16 4 -16 6 0 12 6 15 13 3 9 8 9 18 -2
12 -12 12 -13 -1 -6 -13 8 -13 7 -1 -9 11 -13 16 -14 23 -4 6 9 10 10 16 2 11
-17 35 -22 54 -13 12 7 20 4 27 -8 8 -13 10 -14 11 -4 0 11 4 10 16 -5 8 -10
13 -14 10 -8 -3 7 1 15 10 18 8 3 13 2 10 -3 -3 -5 5 -11 19 -13 14 -3 25 -1
25 3 0 5 5 9 11 9 5 0 8 -4 4 -9 -6 -11 35 -8 54 4 9 5 12 4 8 -2 -4 -6 4 -13
18 -15 13 -3 22 -2 20 2 -3 4 4 10 15 13 11 3 18 2 15 -2 -2 -4 2 -8 10 -8 8
0 12 3 10 7 -2 4 9 7 25 7 18 0 27 -5 24 -11 -3 -6 2 -2 10 8 10 13 16 15 16
7 0 -11 3 -11 15 -1 8 6 19 9 25 5 5 -3 10 -2 10 2 0 5 8 10 18 11 44 4 62 9
78 23 16 12 17 12 9 -1 -7 -12 -6 -13 7 -3 8 7 18 10 21 6 4 -3 7 -1 7 6 0 7
4 10 9 6 5 -3 12 -1 16 5 4 6 11 8 16 5 5 -4 9 -2 9 2 0 10 70 39 83 35 5 -1
6 1 3 6 -5 8 31 31 45 28 3 0 12 6 21 14 9 8 28 24 43 34 150 109 275 273 344
449 209 539 -70 1133 -619 1317 -149 50 -348 62 -505 29z m407 -124 c4 -5 5
-19 1 -30 -5 -16 -3 -18 8 -8 12 10 15 8 15 -7 0 -10 -4 -17 -8 -14 -3 2 -3
-10 2 -28 6 -17 8 -34 5 -36 -2 -3 5 -18 17 -35 12 -17 16 -27 9 -23 -17 11
-5 -32 15 -55 8 -8 14 -19 14 -24 0 -5 -6 0 -14 10 -13 18 -14 18 -9 -8 3 -16
10 -24 17 -20 6 4 5 -1 -3 -10 -11 -15 -11 -17 1 -17 10 0 13 -8 10 -30 -3
-21 0 -30 9 -30 11 0 11 -2 -1 -10 -12 -8 -12 -10 5 -11 11 0 14 -3 7 -6 -10
-4 -10 -8 0 -21 11 -13 11 -15 -2 -8 -8 4 -6 0 4 -8 15 -12 16 -16 5 -17 -8 0
-6 -4 6 -9 18 -8 18 -9 2 -9 -10 -1 -15 -6 -12 -11 4 -6 10 -8 15 -5 4 3 6 -3
3 -14 -6 -22 12 -37 23 -20 5 8 3 9 -6 4 -9 -5 -11 -4 -6 4 11 17 25 4 21 -20
-4 -18 -2 -19 11 -8 13 11 15 10 12 -2 -1 -8 2 -16 7 -18 6 -1 19 -10 29 -19
15 -14 20 -14 24 -3 4 11 6 11 13 0 8 -12 11 -11 19 1 9 14 15 7 11 -14 -1 -5
5 -6 14 -2 9 3 13 2 10 -4 -3 -6 -1 -10 4 -10 15 0 14 -27 -1 -33 -7 -3 -5 -6
6 -6 10 -1 25 -9 33 -18 8 -11 11 -12 7 -3 -7 13 -6 13 9 1 15 -12 20 -11 35
3 10 9 23 16 28 16 5 0 2 -5 -6 -10 -13 -9 -13 -10 0 -10 19 0 44 -49 27 -51
-7 -1 -23 -2 -37 -4 -14 -1 -68 -5 -120 -9 -143 -10 -172 -18 -163 -43 5 -12
3 -14 -8 -8 -8 5 -6 0 4 -12 12 -14 15 -23 8 -28 -6 -3 -11 -11 -11 -16 0 -6
5 -7 11 -3 8 4 8 1 1 -13 -6 -11 -7 -25 -2 -33 5 -8 4 -22 -1 -32 -7 -14 -6
-20 6 -25 13 -5 14 -7 3 -14 -7 -5 -8 -9 -3 -9 6 0 11 -16 12 -35 2 -36 -2
-39 -177 -150 -19 -12 -66 -42 -105 -67 -173 -110 -186 -116 -290 -134 -55 -9
-104 -20 -109 -25 -6 -6 -5 -9 4 -9 9 0 8 -5 -6 -15 -12 -9 -13 -13 -4 -10 28
10 20 -29 -13 -66 -18 -20 -54 -49 -81 -64 l-48 -28 6 274 c16 686 17 699 37
699 6 0 7 -6 3 -12 -5 -8 0 -7 11 2 11 9 16 10 11 3 -4 -7 -2 -13 3 -13 6 0
11 8 11 17 0 15 2 14 15 -3 8 -11 14 -14 15 -6 0 9 5 10 19 2 25 -13 41 -13
21 0 -8 5 -10 10 -4 10 6 0 14 -3 18 -7 10 -10 106 -11 100 -1 -3 5 0 8 5 8 6
0 11 -6 12 -12 0 -10 2 -10 6 0 2 6 9 12 14 12 6 0 7 -4 4 -10 -3 -5 -1 -10 4
-10 6 0 11 8 11 17 0 15 2 14 15 -3 8 -11 14 -14 15 -6 0 10 5 10 21 1 15 -8
19 -8 15 0 -4 6 -2 11 3 11 6 0 11 -6 12 -12 0 -10 2 -10 5 -1 4 9 13 9 30 2
32 -11 34 -11 34 2 0 5 -5 7 -12 3 -7 -4 -8 -3 -4 5 6 9 11 9 21 1 10 -8 15
-8 22 2 4 7 8 133 8 280 1 174 5 272 11 278 6 6 21 12 33 13 11 1 21 5 21 9 0
4 7 5 15 2 8 -4 15 -1 15 5 0 6 5 11 11 11 5 0 7 -6 3 -12 -4 -7 1 -6 10 3 19
18 47 20 58 4z m-468 -593 c3 -5 -1 -9 -9 -9 -8 0 -12 4 -9 9 3 4 7 8 9 8 2 0
6 -4 9 -8z"/>
</g>
</svg>
